<svg width="32" height="32" viewBox="0 0 32 32" fill="none" xmlns="http://www.w3.org/2000/svg">
<g clip-path="url(#clip0_39_42)">
<circle cx="16" cy="16" r="16" fill="#F8F4E9"/>
<path fill-rule="evenodd" clip-rule="evenodd" d="M15.9513 10.7665C14.294 12.6099 12.9294 14.8731 13.2455 16.9533C14.0786 17.6538 14.8554 18.5794 15.592 19.6659C15.6955 16.5282 15.7917 14.8232 15.9581 13.209C16.0292 14.5614 16.1001 15.675 16.1079 16.5373C16.7726 15.8441 17.3703 15.2235 17.9718 14.6568C16.0247 17.4193 16.058 18.2015 16.3575 19.7824C16.7772 18.8726 17.6008 17.8565 18.7539 16.7536C18.5709 14.0577 17.3061 12.2937 15.9513 10.7665Z" fill="#CF9C41"/>
<path fill-rule="evenodd" clip-rule="evenodd" d="M16.2067 25.0245C16.1473 23.1313 16.2067 21.7794 16.7199 20.4484C17.244 19.089 18.0684 17.9622 19.2688 17.2362C19.4754 19.3599 19.0857 20.914 17.588 22.4284C17.0394 23.1884 16.5139 24.2645 16.2067 25.0245Z" fill="#4D6C1F"/>
<path fill-rule="evenodd" clip-rule="evenodd" d="M22.8297 15.6884C21.6767 15.8954 20.6975 16.2922 19.8841 16.8699C19.9046 18.4623 19.7921 19.656 19.5347 20.4146C20.45 19.882 21.2377 19.4546 21.801 18.7236C22.4 17.9464 22.7629 16.958 22.8297 15.6884Z" fill="#4D6C1F"/>
<path fill-rule="evenodd" clip-rule="evenodd" d="M23.429 15.5393C25.1253 15.2922 26.6846 15.278 28.072 15.5559C27.5229 17.6694 27.2233 18.7178 25.8421 19.1671C25.0523 19.424 24.1828 19.4552 23.2626 19.3502L22.2808 19.3335C23.2238 18.8668 24.1668 18.2619 25.1098 17.4863C25.4111 17.2253 25.7161 16.9555 26.0418 16.6376C25.0971 17.3117 24.2617 17.7946 23.479 18.1853L22.547 18.6013C22.9453 18.0128 23.2469 17.0233 23.429 15.5393Z" fill="#4D6C1F"/>
<path fill-rule="evenodd" clip-rule="evenodd" d="M18.1533 22.6946C18.566 21.9818 19.3697 21.2614 20.3833 20.5645C21.1601 19.9953 22.2839 19.8009 23.6783 19.8988C24.4195 19.9656 25.2968 19.8897 26.3701 19.6086C25.6642 20.624 25.082 21.3475 24.4438 21.8625C23.509 22.161 22.5289 22.1881 21.5149 22.0123C20.9573 21.9285 20.2898 21.9822 19.5346 22.1454C19.1562 22.2521 18.681 22.4262 18.1533 22.6946Z" fill="#4D6C1F"/>
<path fill-rule="evenodd" clip-rule="evenodd" d="M23.6786 22.5616L21.5652 22.5283C17.6006 22.1555 16.1794 25.085 16.3397 28.5692C17.8071 27.5719 21.5984 24.5918 21.5984 24.5918C21.5984 24.5918 22.9298 23.4436 23.6786 22.5616Z" fill="#4D6C1F"/>
<path fill-rule="evenodd" clip-rule="evenodd" d="M6.6377 20.8471C8.58125 20.225 10.4311 20.0443 12.0795 20.8139C13.5845 21.6148 14.4584 22.8997 14.9751 24.4584L11.4638 22.8608C10.8504 22.5217 10.2099 21.9753 9.53333 21.1514C10.1239 22.3085 11.1171 23.3346 12.4456 23.8593C15.1166 24.4123 15.9253 26.0085 15.5595 28.5688C13.2928 26.9575 11.3631 25.5072 9.89945 24.2254C8.56632 23.1994 7.46485 22.0405 6.6377 20.8471Z" fill="#BA5522"/>
<path fill-rule="evenodd" clip-rule="evenodd" d="M10.3325 16.5204C13.3613 16.9864 15.6412 19.416 15.6429 23.0938V24.1922C14.7944 22.5045 14.1268 21.6959 12.8454 20.4145C12.3129 19.649 11.8968 19 11.1405 18.351C10.5838 17.719 10.2853 17.1415 10.3325 16.5204Z" fill="#BA5522"/>
<path fill-rule="evenodd" clip-rule="evenodd" d="M10.1312 19.7822C8.78324 19.7489 7.48349 20.04 6.13723 20.4146C4.35171 18.1198 3.71124 16.1048 3.69092 14.4735C4.66101 15.6104 6.15264 16.2932 8.73332 16.1876L9.69853 16.3707C9.88054 17.252 10.065 17.7762 10.326 18.0515C10.6471 18.7504 11.7288 19.5326 11.8287 19.9819C10.8967 19.4327 9.13272 18.8003 7.58505 18.0515C7.00885 17.782 6.47792 17.4176 5.97082 17.003C6.94382 17.976 8.21743 18.9667 10.1312 19.7822Z" fill="#BA5522"/>
<path fill-rule="evenodd" clip-rule="evenodd" d="M11.8301 16.1378C10.5986 15.2725 10.4703 13.2503 7.76126 12.6098C6.97729 12.4244 6.24296 12.2306 5.92236 12.277C6.62131 14.4404 8.50181 15.9215 11.8301 16.1378Z" fill="#BA5522"/>
<path fill-rule="evenodd" clip-rule="evenodd" d="M4.73934 10.2468C5.16877 12.4186 6.08731 14.3906 7.85132 15.6054C5.82034 15.5701 4.36307 14.8528 3.69092 13.4587C3.77449 12.0114 4.16163 10.9941 4.73934 10.2468Z" fill="#BA5522"/>
<path fill-rule="evenodd" clip-rule="evenodd" d="M8.45249 7.5343C7.28235 7.68541 6.24705 8.32128 5.27395 9.4148C5.2718 10.2867 5.43271 11.0795 5.77319 11.6614C6.76185 11.8244 7.85348 12.1266 9.18472 12.5268C8.52428 11.2106 8.20167 9.37979 8.45249 7.5343Z" fill="#BA5522"/>
<path fill-rule="evenodd" clip-rule="evenodd" d="M8.96787 7.45093C9.94972 7.78376 11.0721 8.68663 11.514 9.53113C10.6261 11.0706 10.2754 12.2766 10.3658 13.2089C9.11241 11.6223 8.69275 9.61731 8.96787 7.45093Z" fill="#CF9C41"/>
<path fill-rule="evenodd" clip-rule="evenodd" d="M11.928 9.91394C12.9608 11.4977 13.1786 13.4336 12.6935 15.4389L12.6103 16.1379C10.3844 14.2372 10.5313 12.4613 11.512 10.7294L11.928 9.91394Z" fill="#CF9C41"/>
<path fill-rule="evenodd" clip-rule="evenodd" d="M13.5106 13.2093C14.1151 12.2778 14.829 11.3171 15.6407 10.3303C14.1243 8.15789 11.8319 7.1859 9.96973 7.25665C12.0794 8.74936 13.5367 10.7736 13.5106 13.2093Z" fill="#CF9C41"/>
<path fill-rule="evenodd" clip-rule="evenodd" d="M23.5447 9.56435C20.9652 8.53257 18.4524 9.71412 17.7534 12.0439C18.6126 13.3206 19.1604 14.7889 19.3344 16.4872C20.7198 15.5214 22.7914 14.8985 25.758 14.7232C26.2084 12.2379 25.466 10.5212 23.5447 9.56435Z" fill="#E89E16"/>
<path fill-rule="evenodd" clip-rule="evenodd" d="M16.3729 8.49936L15.8488 7.8337C15.5691 7.34415 15.72 7.31327 16.076 7.50087C16.7202 7.8465 17.3346 8.30123 17.9373 8.79891C18.5119 9.25439 18.4719 9.77632 18.3436 9.8419C18.3221 9.91353 17.8371 10.0452 17.3714 9.53114L16.3729 8.49936Z" fill="#E89E16"/>
<path fill-rule="evenodd" clip-rule="evenodd" d="M19.2114 6.48599C19.1604 6.22978 19.1282 5.94848 19.1187 5.63701C19.0304 5.00528 19.2849 5.06424 19.5014 5.52051C19.854 6.16087 20.1261 6.84268 20.3612 7.5881C20.6383 8.46669 20.3936 8.78036 20.2503 8.76561C20.1933 8.81403 19.6293 8.50169 19.5181 7.81704L19.2114 6.48599Z" fill="#E89E16"/>
<path fill-rule="evenodd" clip-rule="evenodd" d="M22.815 5.33795C23.0313 4.63901 23.3974 4.62237 23.3475 5.37124C23.3056 6.00036 23.2778 6.69819 23.1312 7.50136C23.0353 8.20482 22.8512 8.5717 22.5653 8.54978C22.2644 8.59881 22.2365 8.06469 22.3157 7.30166C22.4605 6.46704 22.6183 5.74048 22.815 5.33795Z" fill="#E89E16"/>
<path fill-rule="evenodd" clip-rule="evenodd" d="M26.3105 6.75578C26.8347 6.24527 27.1642 6.40566 26.7624 7.03957C26.4248 7.57211 26.0668 8.17177 25.5541 8.80716C25.1337 9.37921 24.7966 9.61348 24.556 9.45758C24.2683 9.35682 24.499 8.87432 24.9334 8.24197C25.4595 7.5781 25.9454 7.01534 26.3105 6.75578Z" fill="#E89E16"/>
<path fill-rule="evenodd" clip-rule="evenodd" d="M28.8516 9.44249C29.5421 9.20051 29.7733 9.48487 29.1417 9.89031C28.6111 10.2309 28.0337 10.6238 27.3009 10.9838C26.6785 11.3253 26.2741 11.3956 26.1216 11.1528C25.9032 10.9401 26.3159 10.5999 26.9763 10.2096C27.7333 9.82939 28.4111 9.52392 28.8516 9.44249Z" fill="#E89E16"/>
<path fill-rule="evenodd" clip-rule="evenodd" d="M29.8868 13.2422C30.6798 13.3518 30.7192 13.6438 29.8868 13.7082C29.2582 13.7568 28.6025 13.8845 27.7872 13.8413C27.0773 13.8358 26.6897 13.6617 26.675 13.3754C26.588 13.0832 27.107 12.9946 27.8739 12.976C28.5888 13.0259 29.3709 13.1091 29.8868 13.2422Z" fill="#E89E16"/>
</g>
<defs>
<clipPath id="clip0_39_42">
<rect width="32" height="32" fill="white"/>
</clipPath>
</defs>
</svg>
